<svg xmlns="http://www.w3.org/2000/svg" width="28" height="28" viewBox="0 0 24 24" fill="none" stroke="#eeeeee" stroke-width="1.6" stroke-linejoin="round"><polygon points="12.000,4.900 12.696,4.934 13.756,3.173 14.613,3.388 15.444,3.685 16.243,4.063 15.945,6.097 16.504,6.512 17.020,6.980 17.488,7.496 19.483,7.000 19.937,7.757 20.315,8.556 20.612,9.387 18.964,10.615 19.066,11.304 19.100,12.000 19.066,12.696 20.827,13.756 20.612,14.613 20.315,15.444 19.937,16.243 17.903,15.945 17.488,16.504 17.020,17.020 16.504,17.488 17.000,19.483 16.243,19.937 15.444,20.315 14.613,20.612 13.385,18.964 12.696,19.066 12.000,19.100 11.304,19.066 10.244,20.827 9.387,20.612 8.556,20.315 7.757,19.937 8.055,17.903 7.496,17.488 6.980,17.020 6.512,16.504 4.517,17.000 4.063,16.243 3.685,15.444 3.388,14.613 5.036,13.385 4.934,12.696 4.900,12.000 4.934,11.304 3.173,10.244 3.388,9.387 3.685,8.556 4.063,7.757 6.097,8.055 6.512,7.496 6.980,6.980 7.496,6.512 7.000,4.517 7.757,4.063 8.556,3.685 9.387,3.388 10.615,5.036 11.304,4.934"/><circle cx="12" cy="12" r="3.2"/></svg>
